# xmcd
#
# Track frame offsets:
#	150
#	18410
#	40804
#	67929
#	101306
#	117726
#	137380
#	157161
#	176188
#	205062
#
# Disc length: 3011 seconds
#
# Revision: 0
# Processed by: cddbd v1.5.2PL0 Copyright (c) Steve Scherf et al.
# Submitted via: dBpowerAMP V4.0
#
DISCID=850bc10a
DTITLE=Dave Thompson - Deep in the night
DYEAR=2008
DGENRE=Blues
TTITLE0=Deep in the night
TTITLE1=You're Gonna need it
TTITLE2=I'm Here
TTITLE3=No Good Woman
TTITLE4=Standing at the Bus Station
TTITLE5=The Feeling is Gone
TTITLE6=I need your Love
TTITLE7=A Woman Like You
TTITLE8=She Didn't Say Goodbye
TTITLE9=Dave's Groove
EXTD=
EXTT0=
EXTT1=
EXTT2=
EXTT3=
EXTT4=
EXTT5=
EXTT6=
EXTT7=
EXTT8=
EXTT9=
PLAYORDER=
